<?xml version="1.0" encoding="utf-8" ?><svg xmlns="http://www.w3.org/2000/svg" xmlns:xlink="http://www.w3.org/1999/xlink" width="1080" height="1080" viewBox="0 0 1080 1080"><path fill="#00FF9C" d="M0 0L1080 0L1080 1080L0 1080L0 0Z"/><path d="M347.478 274.443C359.896 273.493 375.289 275.083 387.064 278.883C415.999 288.438 439.988 309.039 453.806 336.199C465.781 360.094 467.782 387.036 462.395 413.231C461.11 419.481 458.131 425.958 456.094 432.164C487.501 464.108 519.119 495.843 550.948 527.366L698.088 675.055L767.035 743.844L787.861 764.557C792.102 768.768 797.274 773.592 800.971 778.172C801.297 787.452 801.131 796.879 801.06 806.175C774.451 804.747 744.655 806.336 717.624 805.768C711.921 801.746 702.674 791.834 697.437 786.556L665.183 754.135L573.102 661.968C556.167 644.985 538.624 626.463 521.216 610.186L473.681 657.99L455.44 676.146C469.576 702.186 467.706 740.806 456.078 767.497C445.149 792.584 419.42 817.395 393.676 826.863C367.309 836.56 334.13 836.028 308.378 824.435C282.452 812.823 259.025 789.212 249.091 762.505C238.344 733.874 239.496 702.135 252.289 674.358C265.294 646.601 293.347 621.414 323.343 613.948C348.012 607.808 376.352 608.957 399.524 619.789C421.045 599.145 443.873 575.306 465.162 554.041C459.144 547.138 449.356 537.895 442.714 531.248C428.424 517.018 414.219 502.702 400.1 488.3C385.485 493.497 381.445 496.085 365.183 497.279C332.93 499.647 305.531 491.573 280.948 470.675C258.321 451.484 244.308 424.042 242.032 394.46C239.681 364.933 249.276 335.697 268.665 313.305C290.741 287.909 314.36 276.783 347.478 274.443Z"/><path fill="#00FF9C" d="M349.83 330.321C380.531 328.26 407.099 351.46 409.191 382.16C411.284 412.859 388.111 439.45 357.414 441.574C326.672 443.701 300.034 420.487 297.939 389.743C295.843 359 319.084 332.386 349.83 330.321Z"/><path fill="#00FF9C" d="M346.453 666.755C376.901 662.792 404.805 684.239 408.81 714.681C412.816 745.123 391.409 773.058 360.973 777.106C330.475 781.164 302.472 759.704 298.458 729.201C294.445 698.698 315.944 670.725 346.453 666.755Z"/><path fill="#00FF9C" d="M519.736 540.377C527.124 539.509 533.843 544.722 534.84 552.093C535.837 559.464 530.743 566.274 523.39 567.4C518.518 568.146 513.623 566.204 510.586 562.322C507.549 558.44 506.843 553.222 508.74 548.672C510.637 544.123 514.841 540.951 519.736 540.377Z"/><path d="M717.891 302.225C727.443 301.779 738.88 302.06 748.585 302.074C766.065 302.145 783.545 302.094 801.024 301.921C801.139 311.07 801.127 320.22 800.99 329.369C798.098 333.563 787.653 343.46 783.493 347.592L750.18 380.844L619.893 511.541C615.078 516.359 610.321 521.277 605.165 525.722C586.356 507.473 567.832 488.932 549.598 470.108C555.271 462.791 572.01 446.991 579.327 439.684L637.436 381.619L684.358 334.61C691.531 327.312 710.62 306.932 717.891 302.225Z"/></svg>