<?xml version="1.0" encoding="utf-8" ?><svg xmlns="http://www.w3.org/2000/svg" xmlns:xlink="http://www.w3.org/1999/xlink" width="1086" height="988" viewBox="0 0 1086 988"><path fill="white" d="M290.852 91.4062C310.84 90.8027 333.822 93.6327 352.48 101.102C392.453 117.076 424.461 148.252 441.485 187.794C453.94 217.393 456.073 253.226 449.64 284.696C447.824 293.579 443.459 303.878 440.013 312.313C475.707 349.538 513.014 385.462 549.415 422.085L796.367 669.247L879.067 751.418L908.691 780.706C912.916 784.911 921.786 793.351 924.924 797.828C924.835 810.67 924.848 823.513 924.965 836.355L848.276 836.214C839.566 836.238 812.976 836.84 806.362 835.651C799.138 829.954 783.547 813.603 776.692 806.738L720.839 750.801L531.84 561.748C525.986 568.442 515.863 578.032 509.401 584.51L464.064 629.87C455.868 637.889 447.705 646.184 439.586 654.3C459.258 684.825 455.725 748.009 441.28 780.395C425.639 815.462 391.357 850.491 355.441 864.478C317.573 879.225 271.014 878.847 233.643 862.643C196.804 846.592 164.867 813.901 150.122 776.496C135.122 737.635 135.945 694.444 152.414 656.182C187.699 575.408 281.011 540.327 361.139 575.562C391.92 544.994 421.926 513.742 453.093 483.253C428.102 457.655 402.498 432.593 377.248 407.248C371.865 401.845 366.327 396.486 361.318 390.737C345.463 398.637 331.874 402.497 314.28 403.744C267.236 407.08 229.295 396.466 193.369 365.677C161.88 338.566 142.568 299.964 139.752 258.505C136.92 217.1 150.692 176.273 178.025 145.046C209.048 109.202 244.549 94.5804 290.852 91.4062ZM303.056 325.881C346.184 322.171 378.107 284.15 374.301 241.026C370.495 197.903 332.406 166.062 289.296 169.964C246.321 173.854 214.605 211.801 218.399 254.789C222.193 297.776 260.065 329.58 303.056 325.881ZM304.633 796.415C347.506 791.877 378.6 753.466 374.117 710.583C369.633 667.7 331.266 636.553 288.381 640.983C245.42 645.421 214.209 683.876 218.701 726.836C223.192 769.796 261.683 800.962 304.633 796.415ZM533.713 502.32C540.562 501.654 546.526 497.359 549.329 491.074C552.131 484.788 551.341 477.481 547.259 471.94C543.178 466.399 536.434 463.479 529.601 464.293C519.193 465.533 511.723 474.919 512.85 485.341C513.977 495.762 523.281 503.334 533.713 502.32Z"/><path fill="white" d="M809.098 130.183C846.911 129.703 886.319 130.341 924.33 130.329C925.118 137.178 925.01 161.768 924.639 168.885C918.656 176.24 903.75 190.27 896.6 197.36L846.254 247.658L668.497 425.34C663.846 430.032 654.691 439.726 649.772 443.57L600.478 395.403C591.134 386.097 580.265 375.484 571.65 365.582C585.627 349.832 600.674 335.829 615.626 321.002L677.352 259.487L756.165 180.697C763.999 172.808 802.214 132.125 809.098 130.183Z"/></svg>